# xmcd CD database file
#
# Track frame offsets:
#	150
#	19890
#	38115
#	49590
#	70215
#	87915
#	110897
#	132466
#	150265
#	160215
#	175964
#	203979
#	220041
#	240738
#	259711
#	275116
#	289088
#	301913
#	320738
#	336014
#
# Disc length: 4702 seconds
#
# Revision: 0
# Processed by: cddbd v1.5.1PL2 Copyright (c) Steve Scherf et al.
# Submitted via: CDex 1.51
#
DISCID=29125c14
DTITLE=Michael Martin Murphey - Wildfire (1972-1984)
DYEAR=1998
DGENRE=Country
TTITLE0=Geronimo's Cadillac
TTITLE1=Natchez Trace
TTITLE2=What Am I Doin' Hangin' Around?
TTITLE3=Boy From The Country
TTITLE4=Cosmic Cowboy
TTITLE5=Alley's Of Austin
TTITLE6=Wildfire
TTITLE7=Carolina In The Pines
TTITLE8=Rhythm Of The Road
TTITLE9=Dancing In The Meadow
TTITLE10=Renegade
TTITLE11=Cherokee Fiddle
TTITLE12=Nothing Is Your Own
TTITLE13=Texas Morning
TTITLE14=Backslider's Wine (Live)
TTITLE15=Take It As It Comes
TTITLE16=What's Forever For?
TTITLE17=Still Takin' Chances
TTITLE18=Don't Count The Rainy Days
TTITLE19=What She Wants
EXTD=YEAR: 1998
EXTT0=
EXTT1=
EXTT2=
EXTT3=
EXTT4=
EXTT5=
EXTT6=
EXTT7=
EXTT8=
EXTT9=
EXTT10=
EXTT11=
EXTT12=
EXTT13=
EXTT14=
EXTT15=
EXTT16=
EXTT17=
EXTT18=
EXTT19=
PLAYORDER=
